<?xml version="1.0" encoding="UTF-8"?>
<svg width="101px" height="101px" viewBox="0 0 101 101" version="1.1" xmlns="http://www.w3.org/2000/svg" xmlns:xlink="http://www.w3.org/1999/xlink">
    <title>Group 2</title>
    <g id="Page-2" stroke="none" stroke-width="1" fill="none" fill-rule="evenodd">
        <g id="Group-2">
            <path d="M8,0 L23.4375,0 C36.3816738,-2.37780616e-15 46.875,10.4933262 46.875,23.4375 C46.875,36.3816738 36.3816738,46.875 23.4375,46.875 L8,46.875 C3.581722,46.875 -1.23527384e-15,43.293278 0,38.875 L0,8 C-5.41083001e-16,3.581722 3.581722,-9.64732338e-16 8,0 Z" id="Rectangle" fill="#04A3FF"></path>
            <path d="M23.4375,53.125 L38.875,53.125 C43.293278,53.125 46.875,56.706722 46.875,61.125 L46.875,92 C46.875,96.418278 43.293278,100 38.875,100 L23.4375,100 C10.4933262,100 1.5852041e-15,89.5066738 0,76.5625 C-1.5852041e-15,63.6183262 10.4933262,53.125 23.4375,53.125 Z" id="Rectangle" fill="#3DD382" transform="translate(23.437500, 76.562500) scale(-1, 1) translate(-23.437500, -76.562500) "></path>
            <path d="M76.5625,53.125 C89.5066738,53.125 100,63.6183262 100,76.5625 C100,81.7079195 98.3419177,86.4660732 95.5309135,90.3318006 L83.7105815,76.2452981 L89.1042894,71.7195647 L66.3646004,67.2403136 L66.5037527,90.6836667 L72.3394178,85.7868373 L83.4124565,98.983155 C81.2456698,99.6443221 78.9456214,100 76.5625,100 L76.5625,100 L61.125,100 C56.706722,100 53.125,96.418278 53.125,92 L53.125,92 L53.125,61.125 C53.125,56.706722 56.706722,53.125 61.125,53.125 L61.125,53.125 Z" id="Combined-Shape" fill="#FB5B52"></path>
            <path d="M61.125,0 L76.5625,0 C89.5066738,-2.37780616e-15 100,10.4933262 100,23.4375 C100,36.3816738 89.5066738,46.875 76.5625,46.875 L61.125,46.875 C56.706722,46.875 53.125,43.293278 53.125,38.875 L53.125,8 C53.125,3.581722 56.706722,-9.64732338e-16 61.125,0 Z" id="Rectangle" fill="#FFAD00"></path>
        </g>
    </g>
</svg>