<?xml version="1.0" encoding="UTF-8"?>
<svg width="100px" height="20px" viewBox="0 0 100 20" version="1.1" xmlns="http://www.w3.org/2000/svg" xmlns:xlink="http://www.w3.org/1999/xlink">
    <title>Artboard Copy 6</title>
    <g id="Artboard-Copy-6" stroke="none" stroke-width="1" fill="none" fill-rule="evenodd">
        <g id="Small" transform="translate(0.000000, 1.000000)">
            <path d="M23.8625753,14.7891892 L23.8625753,9.5996627 L27.6574361,14.7891892 L30.8564097,14.7891892 L26.1990805,8.67238054 L30.7623222,3.20629622 L27.5790299,3.20629622 L23.8625753,7.82643892 L23.8625753,3.20629622 L21.2281264,3.20629622 L21.2281264,14.7891892 L23.8625753,14.7891892 Z M35.3423653,15.1145514 C37.3025207,15.1145514 38.996095,13.9269795 39.388126,12.3001686 L37.2711582,11.9910746 C37.0202583,12.7231395 36.2832399,13.2437189 35.4050903,13.2437189 C34.3387658,13.2437189 33.5703849,12.4791178 33.3665287,11.3078141 L39.6547072,11.3240822 C39.6860697,11.145133 39.6860697,10.8035027 39.6860697,10.5920173 C39.6860697,7.95658378 37.9297704,6.13455568 35.3580466,6.13455568 C32.7706415,6.13455568 30.935936,7.95658378 30.935936,10.5594811 C30.935936,13.2437189 32.7549602,15.1145514 35.3423653,15.1145514 Z M37.3025207,9.84368432 L33.3508474,9.84368432 C33.5547036,8.73745297 34.2760408,8.00538811 35.3110028,8.00538811 C36.3773274,8.00538811 37.1613895,8.7862573 37.3025207,9.84368432 Z M42.7293509,18.5471222 C44.3602002,18.5471222 45.2226686,17.2294054 45.9753682,15.0820151 L49.0802544,6.45991784 L46.6339804,6.45991784 L44.8463187,11.8283935 L42.6666259,6.45991784 L40.0949021,6.45991784 L43.8897629,14.8705297 C43.5290943,15.8791524 43.1370632,16.6112173 42.1334637,16.6112173 C41.8512013,16.6112173 41.4591702,16.5461449 41.1769078,16.4485362 L41.1769078,18.2542962 C41.6159826,18.4332454 42.2275511,18.5471222 42.7293509,18.5471222 Z M53.6759787,15.1470876 C55.9183964,15.1470876 57.4551583,13.8944432 57.4551583,12.1537557 C57.4551583,10.2015827 55.4009154,9.85995243 53.7700661,9.63219892 C52.860554,9.48578595 52.1548981,9.32310486 52.1548981,8.76998919 C52.1705793,8.21687351 52.7507853,7.82643892 53.4721225,7.82643892 C54.4129971,7.82643892 55.118653,8.29821405 55.118653,8.98147459 L57.1885771,8.98147459 C57.1885771,7.30585946 55.6361341,6.10201946 53.4878038,6.10201946 C51.5276484,6.10201946 50.0379303,7.27332324 50.0379303,8.90013405 C50.0379303,10.9336476 51.5276484,11.2264735 53.3153101,11.454227 C54.2875472,11.5518357 55.1970593,11.747053 55.1970593,12.4465816 C55.1970593,12.9996973 54.5698095,13.4226681 53.7073412,13.4226681 C52.6880604,13.4226681 51.9510419,12.8370162 51.9510419,12.0073427 L49.9595241,12.0073427 C49.9438428,13.8293708 51.5119671,15.1470876 53.6759787,15.1470876 Z M61.3295454,18.5308541 L61.3295454,13.7805665 C61.9724764,14.6265081 62.8819885,15.1145514 63.9796755,15.1145514 C66.2220932,15.1145514 67.7902176,13.259987 67.7902176,10.6245535 C67.7902176,7.98912 66.206412,6.13455568 63.9796755,6.13455568 C62.8663072,6.13455568 61.9411139,6.63886703 61.2981829,7.46854054 L61.2981829,6.45991784 L58.9773589,6.45991784 L58.9773589,18.5308541 L61.3295454,18.5308541 Z M63.3367445,12.9183568 C62.1136076,12.9183568 61.2354579,11.9422703 61.2354579,10.6245535 C61.2354579,9.30683676 62.1136076,8.33075027 63.3367445,8.33075027 C64.5442002,8.33075027 65.4380311,9.29056865 65.4380311,10.6245535 C65.4380311,11.9422703 64.5598815,12.9183568 63.3367445,12.9183568 Z M70.6923676,5.35368649 C71.492111,5.35368649 72.0566358,4.7843027 72.0566358,3.9708973 C72.0566358,3.17376 71.492111,2.60437622 70.6923676,2.60437622 C69.8926242,2.60437622 69.3280995,3.17376 69.3280995,3.9708973 C69.3280995,4.7843027 69.8926242,5.35368649 70.6923676,5.35368649 Z M71.8684608,14.7891892 L71.8684608,6.45991784 L69.5162744,6.45991784 L69.5162744,14.7891892 L71.8684608,14.7891892 Z M77.4050597,15.1145514 C78.5341092,15.1145514 79.4593026,14.61024 80.0865523,13.7805665 L80.0865523,14.7891892 L82.4073763,14.7891892 L82.4073763,2.71825297 L80.0551898,2.71825297 L80.0551898,7.46854054 C79.4279401,6.62259892 78.5027468,6.13455568 77.4050597,6.13455568 C75.1783232,6.13455568 73.5945177,7.98912 73.5945177,10.6245535 C73.5945177,13.259987 75.1783232,15.1145514 77.4050597,15.1145514 Z M78.0479907,12.9183568 C76.840535,12.9183568 75.9467041,11.9585384 75.9467041,10.6245535 C75.9467041,9.30683676 76.8248538,8.33075027 78.0479907,8.33075027 C79.2711277,8.33075027 80.1492773,9.30683676 80.1492773,10.6245535 C80.1492773,11.9422703 79.2711277,12.9183568 78.0479907,12.9183568 Z M88.3516875,15.1145514 C90.3118429,15.1145514 92.0054172,13.9269795 92.3974482,12.3001686 L90.2804804,11.9910746 C90.0295805,12.7231395 89.2925621,13.2437189 88.4144125,13.2437189 C87.348088,13.2437189 86.579707,12.4791178 86.3758509,11.3078141 L92.6640294,11.3240822 C92.6953919,11.145133 92.6953919,10.8035027 92.6953919,10.5920173 C92.6953919,7.95658378 90.9390926,6.13455568 88.3673688,6.13455568 C85.7799636,6.13455568 83.9452582,7.95658378 83.9452582,10.5594811 C83.9452582,13.2437189 85.7642824,15.1145514 88.3516875,15.1145514 Z M90.3118429,9.84368432 L86.3601696,9.84368432 C86.5640258,8.73745297 87.285363,8.00538811 88.320325,8.00538811 C89.3866496,8.00538811 90.1707117,8.7862573 90.3118429,9.84368432 Z M96.5854602,14.7891892 L96.5854602,10.3642638 C96.5854602,9.11161946 97.2597537,8.23314162 98.2790345,8.23314162 C98.6240218,8.23314162 99.1571841,8.33075027 99.5962589,8.52596757 L99.5962589,6.36230919 C99.282634,6.23216432 98.9533279,6.15082378 98.6397031,6.15082378 C97.7615535,6.15082378 96.9618101,6.68767135 96.4913728,7.51734486 L96.4913728,6.45991784 L94.2332738,6.45991784 L94.2332738,14.7891892 L96.5854602,14.7891892 Z" id="Keyspider" fill="#030303" fill-rule="nonzero"></path>
            <g id="Group-2">
                <path d="M2,0 L4.00940875,0 C6.22374405,-4.06766797e-16 8.01881749,1.79507344 8.01881749,4.00940875 L8.01881749,4.30951017 C8.01881749,6.52384548 6.22374405,8.31891892 4.00940875,8.31891892 L2,8.31891892 C0.8954305,8.31891892 1.3527075e-16,7.42348842 0,6.31891892 L0,2 C-1.3527075e-16,0.8954305 0.8954305,2.02906125e-16 2,0 Z" id="Rectangle" fill="#04A3FF"></path>
                <path d="M4.00940875,9.42810811 L6.01881749,9.42810811 C7.12338699,9.42810811 8.01881749,10.3235386 8.01881749,11.4281081 L8.01881749,15.747027 C8.01881749,16.8515965 7.12338699,17.747027 6.01881749,17.747027 L4.00940875,17.747027 C1.79507344,17.747027 1.15935628e-15,15.9519536 0,13.7376183 L0,13.4375169 C-2.71177864e-16,11.2231815 1.79507344,9.42810811 4.00940875,9.42810811 Z" id="Rectangle" fill="#3DD382" transform="translate(4.009409, 13.587568) scale(-1, 1) translate(-4.009409, -13.587568) "></path>
                <path d="M13.0974019,9.42810811 C15.3117372,9.42810811 17.1068106,11.2231815 17.1068106,13.4375169 L17.1068106,13.4375169 L17.1068106,13.7376183 C17.1068106,14.6017069 16.8334651,15.4019522 16.368527,16.0566013 L14.2751297,13.5633589 L15.1982182,12.7887962 L11.2339106,11.9340251 L11.3319872,16.0329492 L12.3301429,15.1953966 L14.3139213,17.5591463 C13.9302389,17.681178 13.5215103,17.747027 13.0974019,17.747027 L13.0974019,17.747027 L11.0879932,17.747027 C9.98342366,17.747027 9.08799316,16.8515965 9.08799316,15.747027 L9.08799316,15.747027 L9.08799316,11.4281081 C9.08799316,10.3235386 9.98342366,9.42810811 11.0879932,9.42810811 L11.0879932,9.42810811 Z" id="Combined-Shape" fill="#FB5B52"></path>
                <path d="M11.0879932,0 L13.0974019,0 C15.3117372,-4.06766797e-16 17.1068106,1.79507344 17.1068106,4.00940875 L17.1068106,4.30951017 C17.1068106,6.52384548 15.3117372,8.31891892 13.0974019,8.31891892 L11.0879932,8.31891892 C9.98342366,8.31891892 9.08799316,7.42348842 9.08799316,6.31891892 L9.08799316,2 C9.08799316,0.8954305 9.98342366,2.02906125e-16 11.0879932,0 Z" id="Rectangle" fill="#FFAD00"></path>
            </g>
        </g>
    </g>
</svg>