<?xml version="1.0" encoding="UTF-8"?>
<svg width="150px" height="150px" viewBox="0 0 150 150" version="1.1" xmlns="http://www.w3.org/2000/svg" xmlns:xlink="http://www.w3.org/1999/xlink">
    <title>Group 2</title>
    <g id="Page-2" stroke="none" stroke-width="1" fill="none" fill-rule="evenodd">
        <g id="Group-2">
            <path d="M8,0 L35.15625,0 C54.5725107,-3.56670923e-15 70.3125,15.7399893 70.3125,35.15625 C70.3125,54.5725107 54.5725107,70.3125 35.15625,70.3125 L8,70.3125 C3.581722,70.3125 5.41083001e-16,66.730778 0,62.3125 L0,8 C-5.41083001e-16,3.581722 3.581722,8.11624501e-16 8,0 Z" id="Rectangle" fill="#04A3FF"></path>
            <path d="M35.15625,79.6875 L62.3125,79.6875 C66.730778,79.6875 70.3125,83.269222 70.3125,87.6875 L70.3125,142 C70.3125,146.418278 66.730778,150 62.3125,150 L35.15625,150 C15.7399893,150 2.37780616e-15,134.260011 0,114.84375 C-2.37780616e-15,95.4274893 15.7399893,79.6875 35.15625,79.6875 Z" id="Rectangle" fill="#3DD382" transform="translate(35.156250, 114.843750) scale(-1, 1) translate(-35.156250, -114.843750) "></path>
            <path d="M114.84375,79.6875 C134.260011,79.6875 150,95.4274893 150,114.84375 C150,122.561603 147.513055,129.698599 143.296823,135.497078 L125.565872,114.367947 L133.656434,107.579347 L99.5469006,100.86047 L99.7556291,136.0255 L108.509893,128.679613 L125.119391,148.474517 C121.869004,149.466406 118.418691,150 114.84375,150 L114.84375,150 L87.6875,150 C83.269222,150 79.6875,146.418278 79.6875,142 L79.6875,142 L79.6875,87.6875 C79.6875,83.269222 83.269222,79.6875 87.6875,79.6875 L87.6875,79.6875 Z" id="Combined-Shape" fill="#FB5B52"></path>
            <path d="M87.6875,0 L114.84375,0 C134.260011,-3.56670923e-15 150,15.7399893 150,35.15625 C150,54.5725107 134.260011,70.3125 114.84375,70.3125 L87.6875,70.3125 C83.269222,70.3125 79.6875,66.730778 79.6875,62.3125 L79.6875,8 C79.6875,3.581722 83.269222,8.11624501e-16 87.6875,0 Z" id="Rectangle" fill="#FFAD00"></path>
        </g>
    </g>
</svg>