<?xml version="1.0" encoding="UTF-8"?>
<svg width="150px" height="28px" viewBox="0 0 150 28" version="1.1" xmlns="http://www.w3.org/2000/svg" xmlns:xlink="http://www.w3.org/1999/xlink">
    <title>Artboard Copy 5</title>
    <g id="Artboard-Copy-5" stroke="none" stroke-width="1" fill="none" fill-rule="evenodd">
        <g id="Small">
            <path d="M35.7938629,21.7945946 L35.7938629,14.1468714 L41.4861542,21.7945946 L46.2846146,21.7945946 L39.2986208,12.7803503 L46.1434834,4.72506811 L41.3685449,4.72506811 L35.7938629,11.5336995 L35.7938629,4.72506811 L31.8421897,4.72506811 L31.8421897,21.7945946 L35.7938629,21.7945946 Z M53.013548,22.2740757 C55.9537811,22.2740757 58.4941424,20.5239697 59.0821891,18.1265643 L55.9067373,17.6710573 C55.5303875,18.7498897 54.4248599,19.5170595 53.1076354,19.5170595 C51.5081486,19.5170595 50.3555773,18.3902789 50.049793,16.664147 L59.4820608,16.6881211 C59.5291045,16.4244065 59.5291045,15.9209514 59.5291045,15.6092886 C59.5291045,11.7254919 56.8946556,9.04039784 53.0370698,9.04039784 C49.1559622,9.04039784 46.403904,11.7254919 46.403904,15.5613405 C46.403904,19.5170595 49.1324403,22.2740757 53.013548,22.2740757 Z M55.9537811,14.5064822 L50.0262712,14.5064822 C50.3320554,12.8762465 51.4140612,11.7974141 52.9665043,11.7974141 C54.565991,11.7974141 55.7420843,12.9481686 55.9537811,14.5064822 Z M64.0940264,27.3326011 C66.5403003,27.3326011 67.8340028,25.3907027 68.9630523,22.2261276 L73.6203815,9.51987892 L69.9509707,9.51987892 L67.2694781,17.4313168 L63.9999389,9.51987892 L60.1423531,9.51987892 L65.8346443,21.9144649 C65.2936415,23.4008562 64.7055948,24.4796886 63.2001955,24.4796886 C62.7768019,24.4796886 62.1887553,24.3837924 61.7653618,24.2399481 L61.7653618,26.9010681 C62.423974,27.1647827 63.3413267,27.3326011 64.0940264,27.3326011 Z M80.513968,22.3220238 C83.8775947,22.3220238 86.1827374,20.4760216 86.1827374,17.9107978 C86.1827374,15.0339114 83.1013731,14.5304562 80.6550992,14.1948195 C79.2908311,13.979053 78.2323471,13.7393124 78.2323471,12.9241946 C78.255869,12.1090768 79.126178,11.5336995 80.2081838,11.5336995 C81.6194957,11.5336995 82.6779796,12.228947 82.6779796,13.2358573 L85.7828657,13.2358573 C85.7828657,10.7665297 83.4542011,8.99244973 80.2317056,8.99244973 C77.2914726,8.99244973 75.0568954,10.7185816 75.0568954,13.115987 C75.0568954,16.1127438 77.2914726,16.5442768 79.9729651,16.8799135 C81.4313207,17.0237578 82.7955889,17.3114465 82.7955889,18.3423308 C82.7955889,19.1574486 81.8547143,19.7807741 80.5610117,19.7807741 C79.0320905,19.7807741 77.9265629,18.9177081 77.9265629,17.6950314 L74.9392861,17.6950314 C74.9157642,20.3801254 77.2679507,22.3220238 80.513968,22.3220238 Z M91.9943181,27.308627 L91.9943181,20.3082032 C92.9587145,21.5548541 94.3229827,22.2740757 95.9695132,22.2740757 C99.3331399,22.2740757 101.685326,19.5410335 101.685326,15.6572368 C101.685326,11.77344 99.309618,9.04039784 95.9695132,9.04039784 C94.2994608,9.04039784 92.9116708,9.78359351 91.9472744,11.0062703 L91.9472744,9.51987892 L88.4660384,9.51987892 L88.4660384,27.308627 L91.9943181,27.308627 Z M95.0051168,19.0375784 C93.1704113,19.0375784 91.8531869,17.5991351 91.8531869,15.6572368 C91.8531869,13.7153384 93.1704113,12.2768951 95.0051168,12.2768951 C96.8163003,12.2768951 98.1570466,13.6913643 98.1570466,15.6572368 C98.1570466,17.5991351 96.8398222,19.0375784 95.0051168,19.0375784 Z M106.038551,7.88964324 C107.238167,7.88964324 108.084954,7.05055135 108.084954,5.85184865 C108.084954,4.67712 107.238167,3.83802811 106.038551,3.83802811 C104.838936,3.83802811 103.992149,4.67712 103.992149,5.85184865 C103.992149,7.05055135 104.838936,7.88964324 106.038551,7.88964324 Z M107.802691,21.7945946 L107.802691,9.51987892 L104.274412,9.51987892 L104.274412,21.7945946 L107.802691,21.7945946 Z M116.10759,22.2740757 C117.801164,22.2740757 119.188954,21.53088 120.129828,20.3082032 L120.129828,21.7945946 L123.611064,21.7945946 L123.611064,4.00584649 L120.082785,4.00584649 L120.082785,11.0062703 C119.14191,9.75961946 117.75412,9.04039784 116.10759,9.04039784 C112.767485,9.04039784 110.391777,11.77344 110.391777,15.6572368 C110.391777,19.5410335 112.767485,22.2740757 116.10759,22.2740757 Z M117.071986,19.0375784 C115.260802,19.0375784 113.920056,17.6231092 113.920056,15.6572368 C113.920056,13.7153384 115.237281,12.2768951 117.071986,12.2768951 C118.906692,12.2768951 120.223916,13.7153384 120.223916,15.6572368 C120.223916,17.5991351 118.906692,19.0375784 117.071986,19.0375784 Z M132.527531,22.2740757 C135.467764,22.2740757 138.008126,20.5239697 138.596172,18.1265643 L135.420721,17.6710573 C135.044371,18.7498897 133.938843,19.5170595 132.621619,19.5170595 C131.022132,19.5170595 129.869561,18.3902789 129.563776,16.664147 L138.996044,16.6881211 C139.043088,16.4244065 139.043088,15.9209514 139.043088,15.6092886 C139.043088,11.7254919 136.408639,9.04039784 132.551053,9.04039784 C128.669945,9.04039784 125.917887,11.7254919 125.917887,15.5613405 C125.917887,19.5170595 128.646424,22.2740757 132.527531,22.2740757 Z M135.467764,14.5064822 L129.540254,14.5064822 C129.846039,12.8762465 130.928044,11.7974141 132.480488,11.7974141 C134.079974,11.7974141 135.256068,12.9481686 135.467764,14.5064822 Z M144.87819,21.7945946 L144.87819,15.2736519 C144.87819,13.4276497 145.889631,12.1330508 147.418552,12.1330508 C147.936033,12.1330508 148.735776,12.2768951 149.394388,12.5645838 L149.394388,9.37603459 C148.923951,9.18424216 148.429992,9.06437189 147.959555,9.06437189 C146.64233,9.06437189 145.442715,9.85551568 144.737059,11.0781924 L144.737059,9.51987892 L141.349911,9.51987892 L141.349911,21.7945946 L144.87819,21.7945946 Z" id="Keyspider" fill="#030303" fill-rule="nonzero"></path>
            <g id="Group-2">
                <path d="M2,0 L6.01411312,0 C9.33561608,-6.10150195e-16 12.0282262,2.69261016 12.0282262,6.01411312 L12.0282262,6.24534634 C12.0282262,9.5668493 9.33561608,12.2594595 6.01411312,12.2594595 L2,12.2594595 C0.8954305,12.2594595 1.3527075e-16,11.364029 0,10.2594595 L0,2 C-1.3527075e-16,0.8954305 0.8954305,1.09108455e-15 2,0 Z" id="Rectangle" fill="#04A3FF"></path>
                <path d="M6.01411312,13.8940541 L10.0282262,13.8940541 C11.1327957,13.8940541 12.0282262,14.7894846 12.0282262,15.8940541 L12.0282262,24.1535135 C12.0282262,25.258083 11.1327957,26.1535135 10.0282262,26.1535135 L6.01411312,26.1535135 C2.69261016,26.1535135 2.18312364e-15,23.4609034 0,20.1394004 L0,19.9081672 C-4.06766797e-16,16.5866642 2.69261016,13.8940541 6.01411312,13.8940541 Z" id="Rectangle" fill="#3DD382" transform="translate(6.014113, 20.023784) scale(-1, 1) translate(-6.014113, -20.023784) "></path>
                <path d="M19.6461029,13.8940541 C22.9676058,13.8940541 25.660216,16.5866642 25.660216,19.9081672 L25.660216,19.9081672 L25.660216,20.1394004 C25.660216,21.4475752 25.2425436,22.6581974 24.5332781,23.6451878 L21.4451553,19.9656435 L22.8299235,18.8039608 L16.9376423,17.5863737 L17.0305769,23.6701903 L18.5272921,22.4140216 L21.437537,25.8821904 C20.8716983,26.0585137 20.2699948,26.1535135 19.6461029,26.1535135 L19.6461029,26.1535135 L15.6319897,26.1535135 C14.5274202,26.1535135 13.6319897,25.258083 13.6319897,24.1535135 L13.6319897,24.1535135 L13.6319897,15.8940541 C13.6319897,14.7894846 14.5274202,13.8940541 15.6319897,13.8940541 L15.6319897,13.8940541 Z" id="Combined-Shape" fill="#FB5B52"></path>
                <path d="M15.6319897,0 L19.6461029,0 C22.9676058,-6.10150195e-16 25.660216,2.69261016 25.660216,6.01411312 L25.660216,6.24534634 C25.660216,9.5668493 22.9676058,12.2594595 19.6461029,12.2594595 L15.6319897,12.2594595 C14.5274202,12.2594595 13.6319897,11.364029 13.6319897,10.2594595 L13.6319897,2 C13.6319897,0.8954305 14.5274202,1.09108455e-15 15.6319897,0 Z" id="Rectangle" fill="#FFAD00"></path>
            </g>
        </g>
    </g>
</svg>