<?xml version="1.0" encoding="UTF-8"?>
<svg width="200px" height="200px" viewBox="0 0 200 200" version="1.1" xmlns="http://www.w3.org/2000/svg" xmlns:xlink="http://www.w3.org/1999/xlink">
    <title>Group 2</title>
    <g id="Page-2" stroke="none" stroke-width="1" fill="none" fill-rule="evenodd">
        <g id="Group-2">
            <path d="M8,0 L46.875,0 C72.7633476,-4.75561231e-15 93.75,20.9866524 93.75,46.875 C93.75,72.7633476 72.7633476,93.75 46.875,93.75 L8,93.75 C3.581722,93.75 5.41083001e-16,90.168278 0,85.75 L0,8 C-5.41083001e-16,3.581722 3.581722,8.11624501e-16 8,0 Z" id="Rectangle" fill="#04A3FF"></path>
            <path d="M46.875,106.25 L85.75,106.25 C90.168278,106.25 93.75,109.831722 93.75,114.25 L93.75,192 C93.75,196.418278 90.168278,200 85.75,200 L46.875,200 C20.9866524,200 3.17040821e-15,179.013348 0,153.125 C-3.17040821e-15,127.236652 20.9866524,106.25 46.875,106.25 Z" id="Rectangle" fill="#3DD382" transform="translate(46.875000, 153.125000) scale(-1, 1) translate(-46.875000, -153.125000) "></path>
            <path d="M153.125,106.25 C179.013348,106.25 200,127.236652 200,153.125 C200,163.415729 196.683906,172.931943 191.062008,180.663353 L167.421163,152.490596 L178.208579,143.439129 L132.729201,134.480627 L133.007505,181.367333 L144.679602,171.573032 L166.824913,197.96631 C162.49134,199.288644 157.891243,200 153.125,200 L153.125,200 L114.25,200 C109.831722,200 106.25,196.418278 106.25,192 L106.25,192 L106.25,114.25 C106.25,109.831722 109.831722,106.25 114.25,106.25 L114.25,106.25 Z" id="Combined-Shape" fill="#FB5B52"></path>
            <path d="M114.25,0 L153.125,0 C179.013348,-4.75561231e-15 200,20.9866524 200,46.875 C200,72.7633476 179.013348,93.75 153.125,93.75 L114.25,93.75 C109.831722,93.75 106.25,90.168278 106.25,85.75 L106.25,8 C106.25,3.581722 109.831722,8.11624501e-16 114.25,0 Z" id="Rectangle" fill="#FFAD00"></path>
        </g>
    </g>
</svg>