<?xml version="1.0" encoding="UTF-8"?>
<svg width="200px" height="38px" viewBox="0 0 200 38" version="1.1" xmlns="http://www.w3.org/2000/svg" xmlns:xlink="http://www.w3.org/1999/xlink">
    <title>Artboard Copy 4</title>
    <g id="Artboard-Copy-4" stroke="none" stroke-width="1" fill="none" fill-rule="evenodd">
        <g id="Small">
            <path d="M47.4865248,28.8 L47.4865248,18.69408 L55.0382979,28.8 L61.4042553,28.8 L52.1361702,16.88832 L61.2170213,6.24384 L54.8822695,6.24384 L47.4865248,15.24096 L47.4865248,6.24384 L42.2439716,6.24384 L42.2439716,28.8 L47.4865248,28.8 Z M70.331307,29.4336 C74.2320162,29.4336 77.602229,27.12096 78.3823708,23.95296 L74.1696049,23.35104 C73.6703141,24.77664 72.2036474,25.7904 70.4561297,25.7904 C68.3341439,25.7904 66.8050659,24.30144 66.3993921,22.02048 L78.9128673,22.05216 C78.9752786,21.70368 78.9752786,21.0384 78.9752786,20.62656 C78.9752786,15.4944 75.4802432,11.94624 70.3625127,11.94624 C65.2135765,11.94624 61.5625127,15.4944 61.5625127,20.5632 C61.5625127,25.7904 65.1823708,29.4336 70.331307,29.4336 Z M74.2320162,19.16928 L66.3681864,19.16928 C66.7738602,17.01504 68.2093212,15.58944 70.2688956,15.58944 C72.3908815,15.58944 73.9511651,17.11008 74.2320162,19.16928 Z M85.0314083,36.11808 C88.2767984,36.11808 89.9931104,33.552 91.4909828,29.37024 L97.6697062,12.57984 L92.8016211,12.57984 L89.2441743,23.03424 L84.9065856,12.57984 L79.7888551,12.57984 L87.3406282,28.9584 C86.6228977,30.92256 85.8427558,32.34816 83.8455927,32.34816 C83.2838906,32.34816 82.5037487,32.22144 81.9420466,32.03136 L81.9420466,35.54784 C82.8158055,35.89632 84.0328267,36.11808 85.0314083,36.11808 Z M106.815198,29.49696 C111.277609,29.49696 114.335765,27.0576 114.335765,23.66784 C114.335765,19.86624 110.247822,19.20096 107.002432,18.75744 C105.192503,18.47232 103.788247,18.15552 103.788247,17.0784 C103.819453,16.00128 104.974063,15.24096 106.409524,15.24096 C108.281864,15.24096 109.68612,16.15968 109.68612,17.49024 L113.805268,17.49024 C113.805268,14.2272 110.715907,11.88288 106.440729,11.88288 C102.54002,11.88288 99.5754813,14.16384 99.5754813,17.33184 C99.5754813,21.29184 102.54002,21.86208 106.097467,22.3056 C108.032219,22.49568 109.842148,22.87584 109.842148,24.23808 C109.842148,25.3152 108.593921,26.13888 106.877609,26.13888 C104.84924,26.13888 103.382573,24.9984 103.382573,23.38272 L99.4194529,23.38272 C99.3882472,26.93088 102.508815,29.49696 106.815198,29.49696 Z M122.045795,36.0864 L122.045795,26.83584 C123.325228,28.4832 125.135157,29.4336 127.319554,29.4336 C131.781966,29.4336 134.902533,25.82208 134.902533,20.68992 C134.902533,15.55776 131.75076,11.94624 127.319554,11.94624 C125.103951,11.94624 123.262817,12.92832 121.983384,14.544 L121.983384,12.57984 L117.364944,12.57984 L117.364944,36.0864 L122.045795,36.0864 Z M126.040122,25.1568 C123.606079,25.1568 121.858561,23.256 121.858561,20.68992 C121.858561,18.12384 123.606079,16.22304 126.040122,16.22304 C128.442958,16.22304 130.221682,18.09216 130.221682,20.68992 C130.221682,23.256 128.474164,25.1568 126.040122,25.1568 Z M140.677812,10.4256 C142.269301,10.4256 143.392705,9.3168 143.392705,7.7328 C143.392705,6.18048 142.269301,5.07168 140.677812,5.07168 C139.086322,5.07168 137.962918,6.18048 137.962918,7.7328 C137.962918,9.3168 139.086322,10.4256 140.677812,10.4256 Z M143.018237,28.8 L143.018237,12.57984 L138.337386,12.57984 L138.337386,28.8 L143.018237,28.8 Z M154.036069,29.4336 C156.282877,29.4336 158.124012,28.45152 159.372239,26.83584 L159.372239,28.8 L163.990679,28.8 L163.990679,5.29344 L159.309828,5.29344 L159.309828,14.544 C158.061601,12.89664 156.220466,11.94624 154.036069,11.94624 C149.604863,11.94624 146.45309,15.55776 146.45309,20.68992 C146.45309,25.82208 149.604863,29.4336 154.036069,29.4336 Z M155.315502,25.1568 C152.912665,25.1568 151.133941,23.28768 151.133941,20.68992 C151.133941,18.12384 152.881459,16.22304 155.315502,16.22304 C157.749544,16.22304 159.497062,18.12384 159.497062,20.68992 C159.497062,23.256 157.749544,25.1568 155.315502,25.1568 Z M175.819858,29.4336 C179.720567,29.4336 183.09078,27.12096 183.870922,23.95296 L179.658156,23.35104 C179.158865,24.77664 177.692199,25.7904 175.944681,25.7904 C173.822695,25.7904 172.293617,24.30144 171.887943,22.02048 L184.401418,22.05216 C184.46383,21.70368 184.46383,21.0384 184.46383,20.62656 C184.46383,15.4944 180.968794,11.94624 175.851064,11.94624 C170.702128,11.94624 167.051064,15.4944 167.051064,20.5632 C167.051064,25.7904 170.670922,29.4336 175.819858,29.4336 Z M179.720567,19.16928 L171.856738,19.16928 C172.262411,17.01504 173.697872,15.58944 175.757447,15.58944 C177.879433,15.58944 179.439716,17.11008 179.720567,19.16928 Z M192.205066,28.8 L192.205066,20.18304 C192.205066,17.74368 193.54691,16.03296 195.575279,16.03296 C196.261803,16.03296 197.322796,16.22304 198.196555,16.6032 L198.196555,12.38976 C197.572442,12.13632 196.917123,11.97792 196.293009,11.97792 C194.545491,11.97792 192.954002,13.02336 192.017832,14.63904 L192.017832,12.57984 L187.524215,12.57984 L187.524215,28.8 L192.205066,28.8 Z" id="Keyspider" fill="#030303" fill-rule="nonzero"></path>
            <g id="Group-2">
                <path d="M2,0 L7.9787234,0 C12.3852507,-8.09465926e-16 15.9574468,3.57219614 15.9574468,7.9787234 L15.9574468,8.2212766 C15.9574468,12.6278039 12.3852507,16.2 7.9787234,16.2 L2,16.2 C0.8954305,16.2 1.3527075e-16,15.3045695 0,14.2 L0,2 C-1.3527075e-16,0.8954305 0.8954305,2.02906125e-16 2,0 Z" id="Rectangle" fill="#04A3FF"></path>
                <path d="M7.9787234,18.36 L13.9574468,18.36 C15.0620163,18.36 15.9574468,19.2554305 15.9574468,20.36 L15.9574468,32.56 C15.9574468,33.6645695 15.0620163,34.56 13.9574468,34.56 L7.9787234,34.56 C3.57219614,34.56 5.3964395e-16,30.9878039 0,26.5812766 L0,26.3387234 C-5.3964395e-16,21.9321961 3.57219614,18.36 7.9787234,18.36 Z" id="Rectangle" fill="#3DD382" transform="translate(7.978723, 26.460000) scale(-1, 1) translate(-7.978723, -26.460000) "></path>
                <path d="M26.0638298,18.36 C30.470357,18.36 34.0425532,21.9321961 34.0425532,26.3387234 L34.0425532,26.3387234 L34.0425532,26.5812766 C34.0425532,28.3202206 33.4862474,29.9292325 32.5418953,31.2400527 L28.4603649,26.3761334 L30.29726,24.8353461 L22.4960598,23.2389544 L22.6034603,31.2912106 L24.5895423,29.6241392 L28.4317435,34.2027571 C27.6836042,34.434941 26.8883215,34.56 26.0638298,34.56 L26.0638298,34.56 L20.0851064,34.56 C18.9805369,34.56 18.0851064,33.6645695 18.0851064,32.56 L18.0851064,32.56 L18.0851064,20.36 C18.0851064,19.2554305 18.9805369,18.36 20.0851064,18.36 L20.0851064,18.36 Z" id="Combined-Shape" fill="#FB5B52"></path>
                <path d="M20.0851064,0 L26.0638298,0 C30.470357,-8.09465926e-16 34.0425532,3.57219614 34.0425532,7.9787234 L34.0425532,8.2212766 C34.0425532,12.6278039 30.470357,16.2 26.0638298,16.2 L20.0851064,16.2 C18.9805369,16.2 18.0851064,15.3045695 18.0851064,14.2 L18.0851064,2 C18.0851064,0.8954305 18.9805369,2.02906125e-16 20.0851064,0 Z" id="Rectangle" fill="#FFAD00"></path>
            </g>
        </g>
    </g>
</svg>