<?xml version="1.0" encoding="UTF-8"?>
<svg width="300px" height="54px" viewBox="0 0 300 54" version="1.1" xmlns="http://www.w3.org/2000/svg" xmlns:xlink="http://www.w3.org/1999/xlink">
    <title>Artboard</title>
    <g id="Artboard" stroke="none" stroke-width="1" fill="none" fill-rule="evenodd">
        <g id="Small">
            <path d="M71.2297872,43.2 L71.2297872,28.04112 L82.5574468,43.2 L92.106383,43.2 L78.2042553,25.33248 L91.8255319,9.36576 L82.3234043,9.36576 L71.2297872,22.86144 L71.2297872,9.36576 L63.3659574,9.36576 L63.3659574,43.2 L71.2297872,43.2 Z M105.49696,44.1504 C111.348024,44.1504 116.403343,40.68144 117.573556,35.92944 L111.254407,35.02656 C110.505471,37.16496 108.305471,38.6856 105.684195,38.6856 C102.501216,38.6856 100.207599,36.45216 99.5990881,33.03072 L118.369301,33.07824 C118.462918,32.55552 118.462918,31.5576 118.462918,30.93984 C118.462918,23.2416 113.220365,17.91936 105.543769,17.91936 C97.8203647,17.91936 92.343769,23.2416 92.343769,30.8448 C92.343769,38.6856 97.7735562,44.1504 105.49696,44.1504 Z M111.348024,28.75392 L99.5522796,28.75392 C100.16079,25.52256 102.313982,23.38416 105.403343,23.38416 C108.586322,23.38416 110.926748,25.66512 111.348024,28.75392 Z M127.547112,54.17712 C132.415198,54.17712 134.989666,50.328 137.236474,44.05536 L146.504559,18.86976 L139.202432,18.86976 L133.866261,34.55136 L127.359878,18.86976 L119.683283,18.86976 L131.010942,43.4376 C129.934347,46.38384 128.764134,48.52224 125.768389,48.52224 C124.925836,48.52224 123.755623,48.33216 122.91307,48.04704 L122.91307,53.32176 C124.223708,53.84448 126.04924,54.17712 127.547112,54.17712 Z M160.222796,44.24544 C166.916413,44.24544 171.503647,40.5864 171.503647,35.50176 C171.503647,29.79936 165.371733,28.80144 160.503647,28.13616 C157.788754,27.70848 155.682371,27.23328 155.682371,25.6176 C155.729179,24.00192 157.461094,22.86144 159.614286,22.86144 C162.422796,22.86144 164.529179,24.23952 164.529179,26.23536 L170.707903,26.23536 C170.707903,21.3408 166.07386,17.82432 159.661094,17.82432 C153.81003,17.82432 149.363222,21.24576 149.363222,25.99776 C149.363222,31.93776 153.81003,32.79312 159.146201,33.4584 C162.048328,33.74352 164.763222,34.31376 164.763222,36.35712 C164.763222,37.9728 162.890881,39.20832 160.316413,39.20832 C157.27386,39.20832 155.07386,37.4976 155.07386,35.07408 L149.129179,35.07408 C149.082371,40.39632 153.763222,44.24544 160.222796,44.24544 Z M183.068693,54.1296 L183.068693,40.25376 C184.987842,42.7248 187.702736,44.1504 190.979331,44.1504 C197.672948,44.1504 202.353799,38.73312 202.353799,31.03488 C202.353799,23.33664 197.62614,17.91936 190.979331,17.91936 C187.655927,17.91936 184.894225,19.39248 182.975076,21.816 L182.975076,18.86976 L176.047416,18.86976 L176.047416,54.1296 L183.068693,54.1296 Z M189.060182,37.7352 C185.409119,37.7352 182.787842,34.884 182.787842,31.03488 C182.787842,27.18576 185.409119,24.33456 189.060182,24.33456 C192.664438,24.33456 195.332523,27.13824 195.332523,31.03488 C195.332523,34.884 192.711246,37.7352 189.060182,37.7352 Z M211.016717,15.6384 C213.403951,15.6384 215.089058,13.9752 215.089058,11.5992 C215.089058,9.27072 213.403951,7.60752 211.016717,7.60752 C208.629483,7.60752 206.944377,9.27072 206.944377,11.5992 C206.944377,13.9752 208.629483,15.6384 211.016717,15.6384 Z M214.527356,43.2 L214.527356,18.86976 L207.506079,18.86976 L207.506079,43.2 L214.527356,43.2 Z M231.054103,44.1504 C234.424316,44.1504 237.186018,42.67728 239.058359,40.25376 L239.058359,43.2 L245.986018,43.2 L245.986018,7.94016 L238.964742,7.94016 L238.964742,21.816 C237.092401,19.34496 234.330699,17.91936 231.054103,17.91936 C224.407295,17.91936 219.679635,23.33664 219.679635,31.03488 C219.679635,38.73312 224.407295,44.1504 231.054103,44.1504 Z M232.973252,37.7352 C229.368997,37.7352 226.700912,34.93152 226.700912,31.03488 C226.700912,27.18576 229.322188,24.33456 232.973252,24.33456 C236.624316,24.33456 239.245593,27.18576 239.245593,31.03488 C239.245593,34.884 236.624316,37.7352 232.973252,37.7352 Z M263.729787,44.1504 C269.580851,44.1504 274.63617,40.68144 275.806383,35.92944 L269.487234,35.02656 C268.738298,37.16496 266.538298,38.6856 263.917021,38.6856 C260.734043,38.6856 258.440426,36.45216 257.831915,33.03072 L276.602128,33.07824 C276.695745,32.55552 276.695745,31.5576 276.695745,30.93984 C276.695745,23.2416 271.453191,17.91936 263.776596,17.91936 C256.053191,17.91936 250.576596,23.2416 250.576596,30.8448 C250.576596,38.6856 256.006383,44.1504 263.729787,44.1504 Z M269.580851,28.75392 L257.785106,28.75392 C258.393617,25.52256 260.546809,23.38416 263.63617,23.38416 C266.819149,23.38416 269.159574,25.66512 269.580851,28.75392 Z M288.307599,43.2 L288.307599,30.27456 C288.307599,26.61552 290.320365,24.04944 293.362918,24.04944 C294.392705,24.04944 295.984195,24.33456 297.294833,24.9048 L297.294833,18.58464 C296.358663,18.20448 295.375684,17.96688 294.439514,17.96688 C291.818237,17.96688 289.431003,19.53504 288.026748,21.95856 L288.026748,18.86976 L281.286322,18.86976 L281.286322,43.2 L288.307599,43.2 Z" id="Keyspider" fill="#030303" fill-rule="nonzero"></path>
            <g id="Group-2">
                <path d="M2,0 L11.9680851,0 C18.577876,-1.21419889e-15 23.9361702,5.35829422 23.9361702,11.9680851 L23.9361702,12.3319149 C23.9361702,18.9417058 18.577876,24.3 11.9680851,24.3 L2,24.3 C0.8954305,24.3 2.09738034e-15,23.4045695 0,22.3 L0,2 C-1.3527075e-16,0.8954305 0.8954305,2.02906125e-16 2,0 Z" id="Rectangle" fill="#04A3FF"></path>
                <path d="M11.9680851,27.54 L21.9361702,27.54 C23.0407397,27.54 23.9361702,28.4354305 23.9361702,29.54 L23.9361702,49.84 C23.9361702,50.9445695 23.0407397,51.84 21.9361702,51.84 L11.9680851,51.84 C5.35829422,51.84 -2.74324775e-15,46.4817058 0,39.8719149 L0,39.5080851 C-2.58582276e-15,32.8982942 5.35829422,27.54 11.9680851,27.54 Z" id="Rectangle" fill="#3DD382" transform="translate(11.968085, 39.690000) scale(-1, 1) translate(-11.968085, -39.690000) "></path>
                <path d="M39.0957447,27.54 C45.7055356,27.54 51.0638298,32.8982942 51.0638298,39.5080851 L51.0638298,39.5080851 L51.0638298,39.8719149 C51.0638298,42.480174 50.2294715,44.8935584 48.8130985,46.8597242 L42.6916348,39.5639403 L45.44589,37.2530192 L33.7440897,34.8584315 L33.9051904,46.9368159 L36.8850179,44.4362704 L42.6470756,51.3043032 C41.5250238,51.6524716 40.332284,51.84 39.0957447,51.84 L39.0957447,51.84 L29.1276596,51.84 C28.0230901,51.84 27.1276596,50.9445695 27.1276596,49.84 L27.1276596,49.84 L27.1276596,29.54 C27.1276596,28.4354305 28.0230901,27.54 29.1276596,27.54 L29.1276596,27.54 Z" id="Combined-Shape" fill="#FB5B52"></path>
                <path d="M29.1276596,0 L39.0957447,0 C45.7055356,-1.21419889e-15 51.0638298,5.35829422 51.0638298,11.9680851 L51.0638298,12.3319149 C51.0638298,18.9417058 45.7055356,24.3 39.0957447,24.3 L29.1276596,24.3 C28.0230901,24.3 27.1276596,23.4045695 27.1276596,22.3 L27.1276596,2 C27.1276596,0.8954305 28.0230901,2.02906125e-16 29.1276596,0 Z" id="Rectangle" fill="#FFAD00"></path>
            </g>
        </g>
    </g>
</svg>