<?xml version="1.0" encoding="UTF-8"?>
<svg width="301px" height="301px" viewBox="0 0 301 301" version="1.1" xmlns="http://www.w3.org/2000/svg" xmlns:xlink="http://www.w3.org/1999/xlink">
    <title>Group 2</title>
    <g id="Page-2" stroke="none" stroke-width="1" fill="none" fill-rule="evenodd">
        <g id="Group-2">
            <path d="M8,0 L70.3125,0 C109.145021,-7.13341847e-15 140.625,31.4799785 140.625,70.3125 C140.625,109.145021 109.145021,140.625 70.3125,140.625 L8,140.625 C3.581722,140.625 5.41083001e-16,137.043278 0,132.625 L0,8 C-5.41083001e-16,3.581722 3.581722,8.11624501e-16 8,0 Z" id="Rectangle" fill="#04A3FF"></path>
            <path d="M70.3125,159.375 L132.625,159.375 C137.043278,159.375 140.625,162.956722 140.625,167.375 L140.625,292 C140.625,296.418278 137.043278,300 132.625,300 L70.3125,300 C31.4799785,300 4.75561231e-15,268.520021 0,229.6875 C-4.75561231e-15,190.854979 31.4799785,159.375 70.3125,159.375 Z" id="Rectangle" fill="#3DD382" transform="translate(70.312500, 229.687500) scale(-1, 1) translate(-70.312500, -229.687500) "></path>
            <path d="M229.6875,159.375 C268.520021,159.375 300,190.854979 300,229.6875 C300,245.123206 295.026109,259.397198 286.593646,270.994157 L251.13251,228.735251 L267.312868,215.158694 L199.093801,201.720941 L199.511258,272.051 L217.019785,257.359226 L250.23837,296.94916 C243.737717,298.932857 236.837231,300 229.6875,300 L229.6875,300 L167.375,300 C162.956722,300 159.375,296.418278 159.375,292 L159.375,292 L159.375,167.375 C159.375,162.956722 162.956722,159.375 167.375,159.375 L167.375,159.375 Z" id="Combined-Shape" fill="#FB5B52"></path>
            <path d="M167.375,0 L229.6875,0 C268.520021,-7.13341847e-15 300,31.4799785 300,70.3125 C300,109.145021 268.520021,140.625 229.6875,140.625 L167.375,140.625 C162.956722,140.625 159.375,137.043278 159.375,132.625 L159.375,8 C159.375,3.581722 162.956722,8.11624501e-16 167.375,0 Z" id="Rectangle" fill="#FFAD00"></path>
        </g>
    </g>
</svg>